<svg xmlns="http://www.w3.org/2000/svg" width="512" height="512" viewBox="0 0 120 120" fill="none"><defs><linearGradient id="bgg" x1="0" y1="0" x2="1" y2="1"><stop offset="0" stop-color="#1A2130"></stop><stop offset="1" stop-color="#0E1420"></stop></linearGradient><linearGradient id="g" x1="0" y1="0" x2="1" y2="0"><stop offset="0.5" stop-color="#D7DEE9" stop-opacity="1"></stop><stop offset="1" stop-color="#D7DEE9" stop-opacity="0.1"></stop></linearGradient></defs><rect x="6" y="6" width="108" height="108" rx="24" fill="url(#bgg)"></rect><g transform="translate(27 27) scale(0.55)"><path d="M60 16 C38 16 26 33 26 54 V98 L37.5 88 L49 98 L60 88 L71 98 L82.5 88 L94 98 V54 C94 33 82 16 60 16 Z" fill="url(#g)"></path><circle cx="48" cy="52" r="6" fill="#141B29"></circle><circle cx="72" cy="52" r="6" fill="#141B29"></circle><circle cx="101" cy="42" r="3" fill="#D7DEE9" opacity="0.5"></circle><circle cx="106" cy="58" r="2.5" fill="#D7DEE9" opacity="0.35"></circle><circle cx="102" cy="74" r="2" fill="#D7DEE9" opacity="0.22"></circle></g></svg>